<svg xmlns="http://www.w3.org/2000/svg" viewBox="0 0 512 512" role="img" aria-label="Water energy food nexus logo">
  <defs>
    <linearGradient id="glass" x1="70" x2="444" y1="48" y2="462" gradientUnits="userSpaceOnUse">
      <stop offset="0" stop-color="#f8fbff" stop-opacity=".24"/>
      <stop offset=".48" stop-color="#dbeafe" stop-opacity=".09"/>
      <stop offset="1" stop-color="#ffffff" stop-opacity=".18"/>
    </linearGradient>
    <linearGradient id="line" x1="96" x2="416" y1="90" y2="420" gradientUnits="userSpaceOnUse">
      <stop offset="0" stop-color="#ffffff"/>
      <stop offset=".55" stop-color="#dbeafe"/>
      <stop offset="1" stop-color="#f8fafc"/>
    </linearGradient>
    <filter id="softShadow" x="-20%" y="-20%" width="140%" height="140%">
      <feDropShadow dx="0" dy="18" stdDeviation="22" flood-color="#000000" flood-opacity=".32"/>
    </filter>
  </defs>
  <rect x="18" y="18" width="476" height="476" rx="112" fill="#07101f"/>
  <rect x="28" y="28" width="456" height="456" rx="102" fill="url(#glass)"/>
  <path d="M86 364c56-34 102-40 160-18 56 21 106 16 180-31" fill="none" stroke="#ffffff" stroke-opacity=".26" stroke-width="18" stroke-linecap="round"/>
  <path d="M96 392c46-22 87-24 134-7 44 16 84 13 142-16" fill="none" stroke="#ffffff" stroke-opacity=".36" stroke-width="13" stroke-linecap="round"/>
  <g filter="url(#softShadow)" fill="none" stroke="url(#line)" stroke-linecap="round" stroke-linejoin="round">
    <path d="M151 189c30-54 85-88 148-88 77 0 143 52 162 122" stroke-width="21" stroke-opacity=".78"/>
    <path d="M372 127c47 20 79 63 89 113" stroke-width="21" stroke-opacity=".58"/>
    <path d="M396 327c-40 53-104 84-171 76-61-8-112-48-137-101" stroke-width="21" stroke-opacity=".7"/>
    <path d="M99 304c-22-45-20-100 6-143" stroke-width="21" stroke-opacity=".52"/>
    <circle cx="151" cy="189" r="22" fill="#f8fbff" stroke="none" opacity=".86"/>
    <circle cx="99" cy="304" r="18" fill="#dbeafe" stroke="none" opacity=".76"/>
    <circle cx="396" cy="327" r="18" fill="#f8fbff" stroke="none" opacity=".76"/>
  </g>
  <g filter="url(#softShadow)">
    <path d="M253 74c-55 69-88 126-88 184 0 66 41 112 88 112s88-46 88-112c0-58-33-115-88-184Z" fill="#eaf4ff" fill-opacity=".88"/>
    <path d="M254 130c-34 48-54 86-54 122 0 39 24 64 54 64s54-25 54-64c0-36-20-74-54-122Z" fill="#07101f"/>
    <path d="M235 306c-35-12-58-42-58-84" fill="none" stroke="#ffffff" stroke-opacity=".9" stroke-width="14" stroke-linecap="round"/>
    <path d="M279 149 220 278h54l-30 91 81-139h-57Z" fill="#f8fbff"/>
    <path d="M281 149 235 251h57l-31 71 64-92h-57Z" fill="#cbd5e1"/>
  </g>
  <g fill="none" stroke="#f8fbff" stroke-linecap="round" stroke-linejoin="round" stroke-opacity=".78" filter="url(#softShadow)">
    <path d="M337 277c42-4 76-25 99-68-48-4-84 16-99 68Z" stroke-width="14"/>
    <path d="M354 269c24-12 44-29 63-51" stroke-width="7" stroke-opacity=".52"/>
    <path d="M122 368c50 0 92 16 126 45" stroke-width="13" stroke-opacity=".58"/>
    <path d="M110 397c41-3 75 8 104 30" stroke-width="10" stroke-opacity=".42"/>
  </g>
</svg>
