<svg xmlns="http://www.w3.org/2000/svg" viewBox="0 0 900 620" role="img" aria-label="Flat illustration of atmospheric water harvesting">
  <rect width="900" height="620" fill="#f6f8fb"/>
  <rect x="70" y="78" width="760" height="464" rx="24" fill="#ffffff" stroke="#d9e0e7" stroke-width="3"/>
  <path d="M165 240c35-74 102-112 188-112 70 0 126 25 170 76 25-14 55-21 89-21 83 0 142 56 142 128 0 76-61 131-153 131H259c-78 0-133-43-133-103 0-45 14-78 39-99z" fill="#dff7f3"/>
  <path d="M282 310h336v58H282z" fill="#0f766e"/>
  <path d="M335 368h230v86H335z" fill="#17202a"/>
  <path d="M375 220c0 42 34 76 76 76s76-34 76-76" fill="none" stroke="#1d4ed8" stroke-width="18" stroke-linecap="round"/>
  <circle cx="450" cy="205" r="42" fill="#f59e0b"/>
</svg>
